<svg width="73" height="73" viewBox="0 0 73 73" fill="none" xmlns="http://www.w3.org/2000/svg">
<g id="Capa_1" clip-path="url(#clip0_715_6601)">
<path id="Vector" d="M0 63.3048V35.6438C0.58659 33.2057 2.16162 31.5276 4.20707 30.2324C4.60511 29.979 4.71748 29.7067 4.71558 29.2571C4.70034 24.459 4.70605 19.659 4.70605 14.861C4.70605 14.6267 4.70605 14.3924 4.70605 14.1714C3.02056 13.8419 2.3616 13.0629 2.35779 11.4171C2.35017 8.89905 2.34065 6.38095 2.36731 3.86286C2.37302 3.30286 2.44349 2.71238 2.63775 2.19238C3.17673 0.76381 4.4718 0 6.21062 0C27.185 0 48.1594 0 69.1357 0C69.2786 0 69.4214 0 69.5624 0.00380952C71.444 0.072381 72.9543 1.54857 72.9791 3.43429C73.0133 6.21333 73 8.99429 72.9848 11.7733C72.9771 12.9086 72.2858 13.7524 71.1926 14.061C71.0193 14.1105 70.8422 14.1486 70.6955 14.1848V30.5733C72.3563 30.9295 72.9905 31.7181 72.9924 33.3733C72.9924 35.821 72.9924 38.2667 72.9924 40.7143C72.9924 43.3524 71.5888 44.7543 68.9472 44.7543C61.1787 44.7543 53.4121 44.7543 45.6436 44.7543H44.7485V45.6762C44.7485 51.1162 44.7351 56.5562 44.7561 61.9981C44.7637 63.8038 44.1923 65.3867 42.9315 66.64C42.0478 67.5181 41.0632 68.3429 40.0005 68.9886C36.5533 71.0838 32.71 72.0229 28.7601 72.5714C27.4936 72.7467 26.2194 72.861 24.9491 73.0019H19.8165C19.4184 72.9543 19.0223 72.8933 18.6242 72.8591C14.6133 72.5219 10.6824 71.8114 6.98385 70.16C3.82236 68.7467 0.997965 66.9467 0.00190451 63.3067L0 63.3048ZM23.4503 44.7771C24.7263 44.6533 27.0765 44.5143 29.3981 44.1771C32.7976 43.6838 36.1039 42.7886 39.0311 40.9105C39.991 40.2933 40.8861 39.4876 41.606 38.6019C42.6935 37.2648 42.6382 35.7981 41.6308 34.3943C41.2746 33.8971 40.869 33.3829 40.37 33.0533C39.1492 32.2457 37.9151 31.421 36.5857 30.821C33.4414 29.4019 30.0818 28.7752 26.6613 28.4629C21.1687 27.9619 15.7484 28.3143 10.4558 29.9486C8.10751 30.6743 5.86019 31.6343 4.02043 33.3352C1.815 35.3752 1.75215 37.6857 4.03566 39.621C5.24693 40.6476 6.66389 41.5143 8.11894 42.1581C12.6479 44.1581 17.4796 44.6819 23.4503 44.7771ZM70.6041 11.741C70.6041 8.9219 70.6213 6.14667 70.5908 3.37333C70.5851 2.78095 70.1508 2.44762 69.5604 2.38095C69.3014 2.35238 69.0386 2.3619 68.7777 2.3619C48.0395 2.3619 27.3031 2.3619 6.56486 2.3619C6.39917 2.3619 6.23157 2.3581 6.06588 2.3619C5.13457 2.39429 4.72129 2.8019 4.70986 3.72571C4.69843 4.58095 4.70796 5.43619 4.70796 6.29143C4.70796 8.09333 4.70796 9.89333 4.70796 11.7314H7.0886V4.74476H68.2997V11.741H70.6041ZM28.1982 65.6114V46.781C26.6251 46.8971 25.0996 47.0114 23.576 47.1238V65.9429C25.1282 65.8324 26.6346 65.7238 28.1982 65.6114ZM16.5502 46.7867V65.6114C18.1081 65.7238 19.6108 65.8324 21.1515 65.9429V47.12C19.5993 47.0076 18.0929 46.8971 16.5502 46.7867ZM9.41211 45.2533V46.0495C9.41211 49.7067 9.41211 53.3657 9.41211 57.0229C9.41211 59.1124 9.40258 61.2038 9.42544 63.2933C9.42734 63.5295 9.55494 63.9276 9.70921 63.9771C11.1395 64.4286 12.5888 64.821 14.0686 65.2381V46.4248C12.4955 46.0286 10.9814 45.6495 9.41211 45.2552V45.2533ZM30.6722 46.421V65.2267C32.0472 64.8495 33.3442 64.4781 34.6507 64.141C35.1649 64.0076 35.3459 63.76 35.344 63.2019C35.3211 57.4533 35.3306 51.7029 35.3268 45.9543C35.3268 45.7314 35.3021 45.5086 35.2868 45.2743C33.7061 45.6667 32.1958 46.0438 30.6722 46.4229V46.421ZM42.3354 62.6C40.6099 64.1086 38.7188 65.1181 36.6905 65.8971C32.8624 67.3676 28.8724 68.0305 24.7987 68.2267C19.2737 68.4933 13.8439 67.9543 8.59507 66.1067C6.3706 65.3238 4.29087 64.2571 2.42825 62.7238C2.46254 63.0914 2.52919 63.4343 2.66632 63.7448C3.18054 64.9181 4.0947 65.7448 5.11743 66.4571C7.23144 67.9314 9.61398 68.7943 12.0841 69.4248C17.0416 70.6895 22.0771 70.899 27.145 70.3981C30.5827 70.0571 33.9384 69.3276 37.1018 67.8781C38.7321 67.1314 40.2652 66.2324 41.4136 64.8095C41.905 64.2019 42.2916 63.5333 42.3335 62.5981L42.3354 62.6ZM6.9629 62.8514C7.01432 62.7105 7.05813 62.6476 7.05813 62.5848C7.06384 56.6267 7.06765 50.6686 7.05622 44.7124C7.05622 44.5391 6.93433 44.2895 6.7915 44.2038C5.33645 43.3371 3.86616 42.499 2.39207 41.6476C2.38826 41.6743 2.35779 41.8076 2.35779 41.939C2.35588 47.1619 2.34446 52.3829 2.37493 57.6057C2.37874 58.1543 2.51967 58.7543 2.77297 59.24C3.67952 60.981 5.2736 61.9486 6.9629 62.8514ZM42.3678 41.6095C40.947 42.4495 39.5986 43.28 38.2122 44.04C37.7951 44.2686 37.6465 44.4895 37.6465 44.9581C37.6637 50.7086 37.656 56.459 37.6599 62.2095C37.6599 62.4076 37.6903 62.6038 37.7246 63.0476C38.8578 62.2095 39.89 61.5371 40.8156 60.7429C41.9107 59.8019 42.4002 58.5829 42.3849 57.0857C42.3354 52.1676 42.3659 47.2495 42.3659 42.3295V41.6095H42.3678ZM68.292 40.0686H44.7923V42.3467C44.9979 42.3581 45.1617 42.3733 45.3236 42.3733C53.2807 42.3733 61.2358 42.3752 69.1929 42.3733C70.2194 42.3733 70.6251 41.9829 70.6289 40.9581C70.6422 38.4648 70.6346 35.9695 70.6289 33.4762C70.6289 33.32 70.5832 33.1638 70.5584 33.0038H68.292V40.0705V40.0686ZM18.7671 21.1714V7.1181H14.1715V21.1714H18.7671ZM28.2839 21.1543H32.889V7.12571H28.2839V21.1543ZM39.9948 21.1676V7.12762H35.3706V21.1676H39.9948ZM54.1206 7.1219H49.5078V21.1676H54.1206V7.1219ZM61.1692 37.6267V23.5924H56.5393V37.6267H61.1692ZM54.1034 37.6362V23.579H49.4983V37.6362H54.1034ZM21.2544 7.11048V21.1638H25.8595V7.11048H21.2544ZM47.0205 21.1771V7.12381H42.4326V21.179H47.0205V21.1771ZM61.1692 7.12762H56.5679V21.1467H61.1692V7.12952V7.12762ZM42.4059 23.5562C42.3926 23.8381 42.3716 24.0476 42.3716 24.2552C42.3697 26.5105 42.3526 28.7657 42.3888 31.019C42.3945 31.3733 42.5697 31.8 42.8097 32.0648C44.0876 33.4838 44.8284 35.0895 44.7504 37.0305C44.7427 37.2324 44.7789 37.4343 44.7923 37.6076H47.0186V23.5543H42.4059V23.5562ZM7.11145 21.1467H11.7147V7.11429H9.41211C9.41211 8.67429 9.41401 10.1867 9.41211 11.699C9.4102 12.6914 8.97597 13.4343 8.08466 13.8781C7.77613 14.0305 7.4276 14.1029 7.10955 14.2076V21.1486L7.11145 21.1467ZM63.6355 7.09333V21.1638H68.2521V14.1676C66.5742 13.84 65.9285 13.0552 65.9209 11.3543C65.9171 10.2857 65.9209 9.21714 65.9209 8.14667C65.9209 7.80191 65.9209 7.45905 65.9209 7.09143H63.6355V7.09333ZM63.6222 23.5581V37.6267H65.9209C65.9209 36.12 65.9228 34.6533 65.9209 33.1867C65.919 32.1829 66.2771 31.3695 67.1989 30.8952C67.5245 30.7276 67.8978 30.6533 68.2292 30.5429V23.5581H63.6222ZM39.9872 29.7295V23.5752H35.3325C35.3325 24.9067 35.323 26.2057 35.3459 27.5029C35.3478 27.6438 35.5039 27.8495 35.6392 27.9086C37.0695 28.5238 38.5093 29.1162 39.9872 29.7314V29.7295ZM7.1305 23.579V28.5771C8.57793 28.12 9.97775 27.6857 11.3661 27.2248C11.528 27.1714 11.7528 26.9695 11.7566 26.8324C11.7889 25.7505 11.7737 24.6667 11.7737 23.579H7.12859H7.1305ZM32.889 27.061V23.5829H28.2877V26.221C29.8399 26.5048 31.3483 26.779 32.889 27.061ZM14.1562 26.5676C15.7389 26.3714 17.2587 26.1829 18.7728 25.9962V23.5771H14.1562V26.5676ZM21.2658 23.5714V25.9448H25.8652V23.5714H21.2658Z" fill="#040F61"/>
<path id="Vector_2" d="M22.3285 30.5448C26.7546 30.6438 31.0931 31.1619 35.2411 32.7886C36.7038 33.3619 38.1398 34.0324 39.233 35.1943C40.4081 36.4419 40.4347 36.5733 39.2253 37.8038C37.6884 39.3676 35.6772 40.1524 33.628 40.7809C28.0173 42.5048 22.2942 42.7371 16.5102 41.9657C13.4382 41.5562 10.4539 40.8267 7.69232 39.3619C6.55342 38.7581 5.46023 38.0724 4.8184 36.8971C4.70223 36.6857 4.70604 36.3028 4.82221 36.0895C5.46403 34.9143 6.56103 34.2324 7.69803 33.6267C10.6329 32.0647 13.8172 31.3428 17.0816 30.9505C18.8223 30.7409 20.5802 30.6743 22.3304 30.5428L22.3285 30.5448ZM37.2351 36.5524C36.9056 36.3181 36.7361 36.1486 36.5324 36.0571C35.2354 35.4819 33.9689 34.8019 32.6224 34.3848C28.1182 32.9905 23.4864 32.7333 18.8147 33.12C15.7065 33.3771 12.6574 33.9562 9.78347 35.2305C9.03881 35.56 8.34175 35.9924 7.58947 36.3962C7.71517 36.5638 7.74755 36.6286 7.79897 36.6667C7.95133 36.779 8.09988 36.9124 8.27129 36.9809C9.91488 37.64 11.5204 38.4419 13.2192 38.9105C17.3539 40.0533 21.5972 40.24 25.8595 39.8819C28.9905 39.619 32.0663 39.0495 34.963 37.7638C35.7077 37.4343 36.4048 36.9981 37.237 36.5505L37.2351 36.5524Z" fill="#EB4648"/>
</g>
<defs>
<clipPath id="clip0_715_6601">
<rect width="73" height="73" fill="white"/>
</clipPath>
</defs>
</svg>
