<svg width="57" height="57" viewBox="0 0 57 57" fill="none" xmlns="http://www.w3.org/2000/svg">
<g id="Group 1000006078">
<path id="Vector" d="M56.5349 0C57.0762 0.600113 57.1615 0.781195 56.7041 1.45613C56.1173 2.31964 56.1481 3.05145 56.6952 3.92543C57.2865 4.87274 56.9408 5.38905 55.8349 5.38905C53.9465 5.39054 52.0581 5.38905 50.0859 5.38905C50.0859 6.10739 50.0859 6.7928 50.0859 7.47822C50.0859 7.77753 50.108 8.07833 50.0815 8.37465C50.0109 9.17679 50.055 9.83228 50.9301 10.2827C51.6228 10.6389 51.9007 11.4321 51.9037 12.2447C51.914 14.6526 51.9199 17.0621 51.9022 19.47C51.8919 20.8768 50.9168 21.9737 49.5388 22.0994C48.3887 22.2042 47.2313 22.2147 46.0768 22.273C44.7311 22.3404 43.8722 23.2413 43.8634 24.6136C43.8545 26.1625 43.8722 27.713 43.8531 29.2619C43.8486 29.5941 43.9707 29.7602 44.2399 29.9159C46.1179 31.0068 47.9813 32.1248 49.8653 33.2053C50.3565 33.4866 50.5683 33.8428 50.5624 34.416C50.5418 36.357 50.5698 38.2995 50.5389 40.2405C50.533 40.5578 50.38 40.9229 50.1786 41.1669C50.0697 41.3001 49.6403 41.3285 49.4903 41.2163C49.2741 41.0576 49.0652 40.7314 49.0549 40.468C49.0093 39.2932 49.0343 38.1169 49.0343 36.9406C49.0343 36.2866 49.0152 35.6327 49.0417 34.9802C49.0564 34.636 48.9387 34.4474 48.6446 34.2768C46.7798 33.1993 44.9326 32.0903 43.0648 31.0203C42.5427 30.721 42.3059 30.3588 42.3206 29.7273C42.3588 28.0287 42.3279 26.3302 42.3353 24.6316C42.3441 22.3942 43.8928 20.7855 46.0841 20.7151C47.093 20.6822 48.1005 20.6433 49.1079 20.5939C49.9888 20.552 50.3756 20.1434 50.3771 19.2575C50.3815 16.9992 50.38 14.7394 50.3771 12.4812C50.3771 11.6715 49.9859 11.2061 49.3167 11.1971C48.6034 11.1866 48.1828 11.6461 48.1784 12.4677C48.171 13.9059 48.1769 15.3425 48.1696 16.7807C48.1652 17.8956 47.6019 18.4763 46.5106 18.4778C42.9883 18.4823 39.4645 18.5062 35.9436 18.4643C34.7876 18.4509 33.8655 18.843 33.114 19.69C32.3286 20.5774 31.5462 21.4694 30.8109 22.3987C30.1667 23.2129 29.3916 23.7786 28.4107 24.0853C27.6591 24.3203 26.9267 24.6151 26.2796 24.8486C26.5105 25.5534 26.7297 26.2269 26.9723 26.9662C27.8165 26.7028 28.7578 26.3601 29.724 26.1191C30.8359 25.8423 31.7492 25.3185 32.4419 24.3712C32.8345 23.8339 33.3184 23.367 33.7596 22.8672C34.0126 22.5798 34.3494 22.3598 34.67 22.5993C34.9097 22.7774 35.1421 23.147 35.1509 23.4388C35.198 24.9863 35.173 26.5367 35.173 28.0871C35.173 33.09 35.173 38.0945 35.173 43.0974C35.173 43.2845 35.1891 43.476 35.1553 43.6556C35.0759 44.0746 34.8082 44.3261 34.3891 44.3156C33.9729 44.3051 33.714 44.0477 33.6537 43.6212C33.6287 43.4386 33.642 43.2486 33.642 43.0615C33.642 37.4046 33.642 31.7476 33.642 26.0907V25.3873C33.5155 25.4906 33.4552 25.522 33.4199 25.5714C32.6316 26.6639 31.5212 27.1817 30.2741 27.5753C27.2665 28.5226 24.2927 29.5821 21.2925 30.5549C20.6233 30.7719 19.9041 30.8497 19.2011 30.9275C18.6746 30.9859 18.1378 30.9275 17.6069 30.9425C16.348 30.9814 15.4685 31.8689 15.445 33.1469C15.4229 34.3037 15.4523 35.4621 15.4302 36.6189C15.4229 36.9706 15.5597 37.1487 15.845 37.3148C17.6598 38.3683 19.457 39.4548 21.2778 40.4949C21.794 40.7897 21.9925 41.1564 21.9808 41.752C21.9499 43.3009 21.9719 44.8514 21.969 46.4003C21.969 47.0752 21.7116 47.4074 21.2086 47.4074C20.7086 47.4074 20.4439 47.0677 20.4424 46.3988C20.438 45.0549 20.4203 43.7095 20.4527 42.3671C20.463 41.9256 20.31 41.7086 19.9468 41.5006C18.1584 40.474 16.3965 39.4039 14.6052 38.3818C14.0904 38.0885 13.886 37.7263 13.9022 37.1262C13.9389 35.8197 13.9051 34.5132 13.9154 33.2053C13.9331 31.1191 15.3155 29.5986 17.3525 29.41C17.4613 29.3996 17.5745 29.3771 17.6819 29.3921C20.2189 29.7228 22.3793 28.4508 24.6545 27.683C25.2075 27.496 25.4296 26.8869 25.2428 26.3466C25.0545 25.8049 24.4868 25.519 23.8927 25.7151C22.6911 26.1117 21.5057 26.5621 20.2953 26.9318C19.7247 27.1054 19.1158 27.2266 18.5231 27.2311C14.9096 27.258 11.2946 27.2191 7.67964 27.264C6.85163 27.2745 5.99715 27.4346 5.20738 27.6905C4.18671 28.0197 3.81021 28.6917 3.81021 29.7782C3.80874 32.7099 3.8058 35.6401 3.81021 38.5719C3.81316 39.7227 4.39555 40.5533 5.42063 40.8167C5.42063 40.6027 5.42063 40.4066 5.42063 40.2106C5.42063 37.1861 5.42063 34.1616 5.42063 31.137C5.42063 30.932 5.36034 30.6731 5.4574 30.5339C5.62947 30.2885 5.87655 30.0087 6.14128 29.9398C6.5119 29.8425 6.80604 30.1029 6.89281 30.504C6.93546 30.7016 6.93252 30.9126 6.93252 31.1161C6.93399 37.0529 6.93399 42.9897 6.93252 48.9264C6.93252 49.781 6.6825 50.1746 6.15305 50.1596C5.64712 50.1461 5.41916 49.7705 5.41916 48.9459C5.41916 46.8193 5.41916 44.6927 5.41916 42.5886C5.36181 42.5362 5.33975 42.5003 5.30886 42.4898C3.14399 41.761 2.28068 40.5413 2.28068 38.2082C2.28068 35.4261 2.27921 32.6441 2.28068 29.8635C2.28215 28.0048 3.05133 26.848 4.76764 26.1895C5.26033 26.0009 5.78537 25.8752 6.306 25.7884C6.80898 25.7046 7.3252 25.7091 7.91201 25.6702C7.77082 25.4831 7.66346 25.3424 7.55904 25.2018C6.44277 23.6932 6.08833 22.0037 6.5016 20.1779C6.86192 18.587 7.88406 17.6352 9.45772 17.306C11.7755 16.8211 13.8198 17.9735 14.3199 20.121C14.7434 21.9378 14.4184 23.6394 13.3095 25.1569C13.2021 25.305 13.083 25.4442 12.9065 25.6657C13.1359 25.6822 13.3036 25.7061 13.4698 25.7061C15.139 25.7091 16.8171 25.8123 18.4761 25.6702C19.5659 25.5774 20.6454 25.1823 21.6984 24.8276C23.8883 24.0868 26.0634 23.3026 28.2268 22.487C28.668 22.3209 29.0901 21.9917 29.4152 21.637C30.3152 20.6538 31.1403 19.6032 32.0271 18.608C33.0699 17.4407 34.3655 16.8406 35.9407 16.9214C36.4142 16.9453 36.8893 16.9259 37.4599 16.9259C37.3172 16.7523 37.2349 16.646 37.1452 16.5458C35.6701 14.8846 35.2686 12.9481 35.826 10.8215C36.251 9.20074 37.554 8.20404 39.1983 8.07085C42.5544 7.79698 44.259 10.1076 43.8222 13.3821C43.6472 14.6901 43.0883 15.8214 42.0912 16.8211H46.6356C46.6356 16.6191 46.6356 16.4201 46.6356 16.2225C46.6386 14.9534 46.6371 13.6829 46.6445 12.4138C46.6518 11.2345 47.1651 10.3621 48.2328 9.89513C48.5843 9.74249 48.5696 9.518 48.5696 9.23516C48.5681 6.52791 48.5755 3.82067 48.5622 1.11343C48.5593 0.650996 48.6564 0.273867 49.0446 0.00897925H56.5305L56.5349 0ZM42.3632 12.351C42.3573 12.2432 42.3559 12.0187 42.3309 11.7972C42.1912 10.4923 41.3514 9.69759 40.0292 9.61079C38.4982 9.51052 37.5158 10.1241 37.2334 11.4515C36.954 12.7625 37.1496 14.0211 37.9394 15.127C38.9277 16.5113 40.5381 16.5128 41.5411 15.1435C42.1206 14.3518 42.3588 13.4449 42.3618 12.351H42.3632ZM12.9653 21.4844C12.958 21.3362 12.958 21.1102 12.9315 20.8887C12.7933 19.705 12.052 18.9447 10.9108 18.8085C9.46801 18.6349 8.43116 19.1243 8.08114 20.2527C7.61345 21.7582 7.85465 23.1799 8.87238 24.3891C9.77392 25.4607 11.1108 25.4218 12.0182 24.3502C12.6947 23.5511 12.955 22.5963 12.9653 21.4844ZM55.0128 3.81468C54.2965 3.0305 54.4436 2.30916 54.9377 1.58184H50.1315V3.81468H55.0128Z" fill="#EB4648"/>
<path id="Vector_2" d="M0.0014872 53.0216C0.315287 52.6661 0.704934 52.5688 1.18084 52.5717C5.18885 52.588 9.19537 52.5806 13.2034 52.5806H13.8696C13.8696 51.9493 13.8667 51.3652 13.8696 50.7811C13.8756 49.9078 14.0793 49.7028 14.9508 49.7028C18.9589 49.7028 22.9654 49.7028 26.9734 49.7028H27.7259C27.7259 49.2249 27.7259 48.775 27.7259 48.3237C27.7259 47.3487 27.9192 47.1525 28.883 47.1525C32.8716 47.1525 36.8603 47.1525 40.849 47.1525C41.0691 47.1525 41.2892 47.1525 41.6015 47.1525C41.6015 46.4607 41.5985 45.8058 41.6015 45.1494C41.606 44.2909 41.8201 44.0815 42.6901 44.08C47.1056 44.08 51.5211 44.08 55.9366 44.08C56.7531 44.08 56.9955 44.319 56.9955 45.1288C56.997 48.7544 56.9926 52.3785 57 56.0041C57 56.5041 56.8587 56.8862 56.3204 56.9821C55.8177 57.072 55.4533 56.6664 55.4503 56.0277C55.4444 54.2798 55.4488 52.5319 55.4488 50.784C55.4488 49.0922 55.4488 47.3988 55.4488 45.6583H43.1289V46.2793C43.1289 49.4078 43.1289 52.5363 43.1289 55.6634C43.1289 55.8286 43.1348 55.9953 43.1244 56.1605C43.0917 56.6811 42.7928 56.9983 42.3525 56.9924C41.9123 56.9865 41.6075 56.6649 41.606 56.1398C41.5956 54.1898 41.606 52.2384 41.5985 50.2884C41.597 49.7766 41.7606 49.0494 41.4944 48.8119C41.1866 48.5375 40.4876 48.6718 39.9582 48.6718C36.6372 48.6644 33.3163 48.6673 29.9954 48.6673H29.2741V49.3105C29.2741 51.5363 29.2696 53.7636 29.2771 55.9894C29.2771 56.4068 29.1938 56.7623 28.7655 56.9378C28.2345 57.1546 27.7333 56.7564 27.7274 56.0941C27.717 54.6958 27.7244 53.2974 27.7244 51.8991C27.7244 51.7 27.7244 51.5009 27.7244 51.2693H15.397C15.397 51.7251 15.397 52.1617 15.397 52.5983C15.397 53.7577 15.403 54.917 15.394 56.0764C15.3896 56.6517 15.1115 56.9806 14.6549 56.9924C14.1805 57.0057 13.8815 56.662 13.8711 56.0602C13.8607 55.4377 13.8682 54.8152 13.8682 54.1544H1.54966C1.54966 54.7297 1.54372 55.2946 1.55115 55.8596C1.55859 56.2991 1.53925 56.7165 1.0574 56.9319C0.581496 57.1443 0.304876 56.8154 0 56.5558V53.0231L0.0014872 53.0216Z" fill="#040F61"/>
<path id="Vector_3" d="M39.5506 33.3334V33.9795C39.5506 36.9616 39.5506 39.9437 39.5476 42.9258C39.5476 43.1694 39.591 43.4811 39.4653 43.6384C39.2886 43.8578 38.9593 44.0999 38.7168 44.0787C38.4772 44.0575 38.2302 43.7489 38.0565 43.5128C37.9637 43.3858 38.0131 43.1482 38.0131 42.9591C38.0116 39.4111 38.0101 35.8616 38.0131 32.3137C38.0131 31.1683 38.5012 30.8778 39.4862 31.4331C41.5387 32.5921 43.5822 33.7631 45.6421 34.9069C46.1391 35.1838 46.3757 35.5257 46.3592 36.1188C46.3248 37.4397 46.3517 38.7605 46.3472 40.0829C46.3457 40.7002 46.0658 41.0694 45.6017 41.0875C45.1151 41.1057 44.7978 40.7214 44.7933 40.0799C44.7873 38.9285 44.8038 37.7771 44.7783 36.6257C44.7738 36.4411 44.6541 36.1763 44.5058 36.0901C42.9564 35.1838 41.3905 34.3063 39.8276 33.4227C39.7677 33.3894 39.6943 33.3788 39.5491 33.3319L39.5506 33.3334Z" fill="#040F61"/>
<path id="Vector_4" d="M11.3222 40.8572C11.3222 42.9714 11.3222 44.9588 11.3222 46.9478C11.3222 47.7184 11.3291 48.4889 11.3194 49.2595C11.3125 49.8129 11.0145 50.1718 10.5931 50.1597C10.1883 50.1477 9.88892 49.8114 9.88754 49.2836C9.87922 46.0702 9.87506 42.8568 9.88893 39.6448C9.8917 38.8713 10.4406 38.538 11.0672 38.9165C13.0591 40.1168 15.0496 41.3232 17.0179 42.5657C17.2383 42.7045 17.4337 43.092 17.4476 43.374C17.4989 44.4235 17.4767 45.4776 17.4642 46.5301C17.4587 47.082 17.1967 47.3851 16.7698 47.3926C16.3276 47.4002 16.0573 47.085 16.049 46.5014C16.0365 45.7128 16.0573 44.9226 16.0351 44.134C16.0296 43.9575 15.9492 43.7012 15.8286 43.6243C14.3676 42.7075 12.8927 41.8178 11.3194 40.8587L11.3222 40.8572Z" fill="#040F61"/>
</g>
</svg>
