<svg width="57" height="58" viewBox="0 0 57 58" fill="none" xmlns="http://www.w3.org/2000/svg">
<g id="Group 1000006367">
<path id="Vector" d="M29.5862 7.61062C29.5862 9.69391 29.5895 11.7772 29.5862 13.8621C29.5829 14.9087 29.2208 15.2642 28.1676 15.2841C21.64 15.4015 16.1639 20.3567 15.3851 26.8496C14.5369 33.9163 19.0011 40.1314 25.952 41.56C32.8815 42.9852 40.1878 38.0481 41.4858 31.046C41.628 30.2788 41.6875 29.4934 41.7453 28.7147C41.8082 27.8516 42.1604 27.4399 43.0019 27.4382C47.2512 27.4283 51.5004 27.4283 55.7497 27.4382C56.545 27.4399 57.0145 27.9028 56.9997 28.5857C56.9848 29.2471 56.5268 29.6455 55.7513 29.6505C54.4733 29.6588 53.1935 29.6703 51.9154 29.6455C51.3186 29.634 51.0689 29.8671 51.0226 30.4689C50.2835 39.9925 43.2566 48.3174 34.0107 50.6438C33.1725 50.8554 32.602 50.5743 32.4615 49.8816C32.3176 49.1739 32.65 48.7143 33.5097 48.4877C35.7022 47.914 37.7573 47.0294 39.6323 45.7596C44.9017 42.1866 47.9241 37.2214 48.7756 30.922C48.7971 30.7583 48.8021 30.5929 48.8104 30.4276C48.8467 29.7431 48.7426 29.6207 48.0614 29.6174C46.9271 29.6108 45.7929 29.629 44.6586 29.6108C44.1229 29.6025 43.8997 29.8191 43.8237 30.3582C42.8581 37.19 38.2054 42.2395 31.562 43.6896C31.2198 43.764 30.8742 43.8235 30.527 43.8665C29.6226 43.9772 29.5895 44.007 29.5895 44.9461C29.5895 48.453 29.5895 51.9599 29.5895 55.4684C29.5895 56.5481 29.2192 57.0739 28.4735 57.054C27.7609 57.0358 27.4153 56.52 27.4136 55.4734C27.4136 54.4416 27.4136 53.4099 27.4136 52.3782C27.4136 51.3713 27.3558 51.3002 26.3538 51.2026C23.6158 50.9364 21.0084 50.194 18.5696 48.9342C12.3776 45.7365 8.40611 40.7465 6.6535 33.9973C6.45675 33.2384 6.7246 32.6597 7.32478 32.4894C7.99937 32.2976 8.52185 32.6564 8.7368 33.488C10.1703 39.0236 13.3151 43.2927 18.2075 46.254C20.8232 47.8363 23.677 48.7192 26.7126 49.0367C27.1838 49.0863 27.4103 48.8631 27.4103 48.4018C27.4137 47.122 27.4037 45.8439 27.4136 44.5642C27.417 44.0285 27.0764 43.931 26.6514 43.878C23.8902 43.5374 21.3886 42.5305 19.183 40.8424C15.8679 38.3077 13.9136 34.9497 13.2572 30.8327C13.2407 30.7302 13.2208 30.6293 13.2043 30.5285C13.0671 29.6786 13.0175 29.6356 12.1279 29.6356C9.75528 29.6356 7.38431 29.6356 5.01167 29.6356C3.77327 29.6356 2.53652 29.6406 1.29812 29.6356C0.48134 29.6323 0.0117773 29.2322 0.000203428 28.5477C-0.0113704 27.8433 0.47142 27.4201 1.31962 27.4151C2.51668 27.4085 3.7121 27.4134 4.90916 27.4134C5.92104 27.4134 5.98056 27.3705 6.06323 26.3453C6.31124 23.2832 7.14291 20.3865 8.58799 17.6832C11.6468 11.9657 16.3028 8.17278 22.5014 6.27798C23.2735 6.04154 23.8059 6.24987 24.0638 6.84509C24.3648 7.54118 23.9828 8.18435 23.0834 8.43401C21.225 8.95318 19.4674 9.70879 17.8504 10.757C12.0982 14.4871 8.9104 19.7879 8.2292 26.6033C8.16472 27.2531 8.32014 27.425 8.97158 27.43C10.086 27.4382 11.2004 27.4201 12.3131 27.4382C12.8389 27.4465 13.0919 27.2547 13.1663 26.7058C14.107 19.6441 19.1896 14.3896 26.2001 13.2124C27.008 13.0768 27.412 12.5918 27.412 11.7574C27.412 8.33316 27.4103 4.9073 27.4153 1.4831C27.4153 1.21856 27.4285 0.940787 27.5095 0.692777C27.6584 0.231477 28.0204 0 28.4999 0C28.9794 0 29.3415 0.22817 29.4887 0.692777C29.568 0.942441 29.5829 1.21856 29.5829 1.48476C29.5895 3.52671 29.5862 5.57032 29.5862 7.61227V7.61062Z" fill="#040F61"/>
<path id="Vector_2" d="M47.089 7.55769C47.089 8.17606 47.084 8.79444 47.089 9.41281C47.0956 10.1139 47.2741 10.299 47.9603 10.3023C49.1772 10.309 50.3925 10.3139 51.6094 10.3007C52.1732 10.2941 52.646 10.4363 52.861 10.9984C53.0726 11.5523 52.8329 11.9541 52.4212 12.3575C49.9493 14.7847 47.4957 17.2284 45.0536 19.6854C44.6452 20.0971 44.212 20.2823 43.6317 20.2707C42.1899 20.2426 40.7448 20.274 39.3031 20.2542C38.812 20.2476 38.4499 20.4079 38.1044 20.7585C35.2688 23.637 32.4183 26.5007 29.5695 29.3677C29.3959 29.5413 29.2206 29.7298 29.0123 29.8505C28.5444 30.1184 28.0864 30.039 27.7144 29.6571C27.344 29.2768 27.2812 28.8188 27.554 28.3542C27.6565 28.1806 27.8119 28.0334 27.9558 27.8879C30.8724 24.9432 33.7972 22.0084 36.694 19.0455C36.9321 18.8008 37.0941 18.3776 37.1057 18.032C37.1503 16.5687 37.1388 15.1038 37.1173 13.6406C37.109 13.0867 37.281 12.6617 37.6778 12.2682C40.1248 9.846 42.557 7.40888 44.9875 4.97176C45.3876 4.57164 45.801 4.25584 46.4028 4.5055C46.998 4.75186 47.1071 5.24954 47.089 5.82492C47.0708 6.40196 47.0857 6.979 47.0857 7.55603L47.089 7.55769ZM41.5583 18.0849C42.0742 18.0849 42.59 18.1031 43.1026 18.0766C43.3126 18.0651 43.5771 18.0155 43.7144 17.8799C45.1975 16.4199 46.6673 14.9451 48.119 13.4554C48.2645 13.3066 48.3918 12.9693 48.3191 12.8238C48.2281 12.6386 47.9305 12.4716 47.7073 12.4501C47.1551 12.3972 46.5962 12.4435 46.039 12.4286C45.2801 12.4088 44.8585 11.9872 44.837 11.2332C44.8238 10.7603 44.8734 10.2808 44.8188 9.81293C44.7874 9.53847 44.6733 9.14496 44.4799 9.05402C44.2997 8.96804 43.8913 9.13834 43.7061 9.32187C42.3139 10.6975 40.9416 12.0946 39.5891 13.5116C39.4006 13.7084 39.2799 14.0456 39.27 14.3234C39.232 15.3105 39.275 16.3025 39.2485 17.2913C39.232 17.8948 39.5147 18.1048 40.0719 18.0915C40.5663 18.08 41.0606 18.0882 41.555 18.0899L41.5583 18.0849Z" fill="#EB4648"/>
<path id="Vector_3" d="M28.4818 37.7356C23.6621 37.6959 19.6196 33.903 19.3501 29.1313C19.074 24.2323 22.6122 20.0062 27.4418 19.4688C27.7692 19.4324 28.0999 19.3845 28.4273 19.396C29.0225 19.4175 29.4524 19.8441 29.4904 20.3997C29.5268 20.9602 29.1663 21.4347 28.5728 21.5356C28.0668 21.6215 27.5443 21.6199 27.0417 21.7191C24.2541 22.2746 22.1112 24.5514 21.6136 27.4597C21.1457 30.1994 22.4932 33.0515 24.9502 34.5164C27.3774 35.9632 30.5684 35.8011 32.7393 34.0799C34.5019 32.6845 35.2674 30.7781 35.4294 28.5873C35.484 27.8631 35.8362 27.4415 36.433 27.3886C37.1308 27.3274 37.6384 27.8053 37.6566 28.5427C37.7624 32.8399 34.3646 36.8874 30.0774 37.562C29.5499 37.6447 29.0142 37.6794 28.4835 37.7356H28.4818Z" fill="#EB4648"/>
</g>
</svg>
