<svg width="57" height="57" viewBox="0 0 57 57" fill="none" xmlns="http://www.w3.org/2000/svg">
<g id="Group 1000006070">
<path id="Vector" d="M41.4685 29.6723C41.4685 31.7548 41.4712 33.8345 41.4685 35.917C41.4629 38.489 39.834 40.1069 37.2537 40.1097C36.6047 40.1097 36.2802 40.4397 36.2802 41.0998C36.2802 44.8168 36.2857 48.5365 36.2802 52.2535C36.2746 54.7121 34.7038 56.5319 32.2783 56.8831C30.984 57.0684 29.8418 56.6646 28.849 55.8488C28.5945 55.6414 28.4673 55.6275 28.2018 55.8405C26.7139 57.0325 25.0573 57.3063 23.3343 56.4628C21.5975 55.6137 20.7596 54.1479 20.7596 52.2065C20.7596 48.3872 20.7457 44.5679 20.7762 40.7513C20.7817 40.1982 20.6213 40.0627 20.1041 40.1042C18.8458 40.201 17.698 39.9189 16.766 39.0007C15.9751 38.2236 15.5823 37.2694 15.5796 36.1742C15.5685 31.8516 15.5436 27.5262 15.5851 23.2035C15.6266 18.997 19.0255 15.5926 23.2431 15.5345C26.7582 15.4847 30.2733 15.4875 33.7884 15.5345C38.0336 15.5898 41.4076 19.0053 41.4629 23.2533C41.4906 25.3939 41.4685 27.5372 41.4685 29.6778V29.6723ZM23.3343 38.4725C23.3343 41.9682 23.3343 45.4639 23.3343 48.9597C23.3343 50.0521 23.3233 51.1417 23.3371 52.2341C23.3537 53.3763 24.0645 54.2198 25.0573 54.3056C26.3101 54.4162 27.2062 53.5838 27.209 52.2673C27.2173 47.9419 27.209 43.6193 27.2145 39.2938C27.2145 39.0339 27.22 38.7656 27.2781 38.5139C27.4192 37.9083 27.8948 37.5487 28.5005 37.5404C29.1117 37.5349 29.5902 37.8778 29.7478 38.4808C29.8142 38.7297 29.8225 38.9979 29.8225 39.2579C29.828 43.622 29.8225 47.9862 29.8308 52.3531C29.8308 53.4399 30.5775 54.2447 31.5842 54.3083C32.6683 54.3802 33.4897 53.722 33.6667 52.6269C33.7082 52.3696 33.7054 52.1041 33.7054 51.8414C33.7054 42.9306 33.7054 34.0198 33.7054 25.1063C33.7054 24.8629 33.6943 24.6195 33.7275 24.3789C33.8298 23.6128 34.5987 23.1316 35.3399 23.3529C35.9677 23.5409 36.2774 24.0083 36.2774 24.7993C36.2774 28.6794 36.2774 32.5596 36.2774 36.4397C36.2774 37.2141 36.672 37.5773 37.4611 37.5294C38.3295 37.4768 38.8411 37.0039 38.8411 36.1659C38.8467 31.7603 38.8771 27.3547 38.819 22.9518C38.7858 20.4075 36.5623 18.195 34.0179 18.1563C30.3424 18.1037 26.6641 18.101 22.9859 18.1563C20.4802 18.195 18.2456 20.4158 18.2124 22.9159C18.1544 27.3409 18.1848 31.7658 18.1903 36.1908C18.1903 36.9348 18.6245 37.3883 19.3546 37.5045C19.4929 37.5266 19.6367 37.5239 19.7778 37.5266C20.4286 37.5358 20.754 37.2242 20.754 36.5918C20.754 32.6508 20.754 28.7098 20.754 24.7716C20.754 23.8673 21.2961 23.2671 22.0732 23.281C22.8144 23.2948 23.3122 23.8839 23.326 24.7661C23.326 24.9265 23.326 25.0897 23.326 25.2501C23.326 29.6557 23.326 34.0613 23.326 38.4669L23.3343 38.4725Z" fill="#EB4648"/>
<path id="Vector_2" d="M50.4954 41.4151C50.4954 38.0604 50.4954 34.7057 50.4954 31.3538C50.4954 30.4715 50.8743 29.9184 51.5353 29.7967C52.4285 29.6363 53.0923 30.2337 53.1006 31.2487C53.1144 33.1072 53.1006 34.9657 53.1117 36.8241C53.1117 37.0426 52.9623 37.3745 53.2416 37.4658C53.5099 37.5515 53.7782 37.3496 53.9883 37.1477C54.2677 36.8795 54.3755 36.5448 54.3755 36.1659C54.37 32.6508 54.4087 29.133 54.3479 25.6207C54.3009 22.9463 52.0607 20.7753 49.3836 20.72C47.6274 20.684 45.8685 20.7172 44.1096 20.7062C43.4514 20.7006 42.995 20.3688 42.818 19.8101C42.6438 19.2625 42.8319 18.6983 43.2937 18.3637C43.5731 18.1618 43.8883 18.1314 44.2147 18.1314C45.8713 18.1314 47.5279 18.1176 49.1845 18.1341C53.5293 18.1784 56.9061 21.4888 56.9697 25.8308C57.0195 29.2657 56.9973 32.7006 56.9752 36.1355C56.9614 38.2125 55.6062 39.7833 53.5846 40.0654C53.1448 40.1263 53.0923 40.2784 53.0951 40.6573C53.1089 44.2941 53.1144 47.9308 53.0978 51.5676C53.0868 53.9737 51.3002 55.7326 49.0075 55.622C48.2635 55.586 47.5777 55.351 46.9886 54.8974C46.7314 54.6983 46.5765 54.6651 46.2778 54.8781C45.0222 55.7769 43.6588 55.9013 42.2843 55.1933C40.8904 54.477 40.1741 53.2851 40.1631 51.717C40.1437 48.8075 40.1548 45.8981 40.1603 42.9887C40.1603 42.1009 40.6553 41.5395 41.4242 41.5229C42.229 41.5063 42.7351 42.0567 42.7351 42.9915C42.7406 45.84 42.7295 48.6886 42.7406 51.5372C42.7434 52.6241 43.5482 53.274 44.4636 52.9615C45.0305 52.7679 45.3375 52.2839 45.3403 51.5206C45.3486 49.9055 45.3348 48.2876 45.3458 46.6725C45.3513 45.8732 45.8077 45.3588 46.5046 45.3063C47.3232 45.2427 47.9095 45.7958 47.9151 46.6725C47.9261 48.3291 47.9095 49.9857 47.9234 51.6423C47.9317 52.66 48.7945 53.2989 49.674 52.9477C50.2686 52.7098 50.5009 52.2314 50.4981 51.6008C50.4899 49.8225 50.4954 48.0442 50.4954 46.2659C50.4954 44.6508 50.4954 43.0329 50.4954 41.4178V41.4151Z" fill="#040F61"/>
<path id="Vector_3" d="M6.54746 41.4427C6.54746 44.8168 6.54193 48.1908 6.55023 51.5649C6.55023 52.6296 7.31354 53.2546 8.22066 52.967C8.79037 52.7873 9.11672 52.3143 9.11948 51.6146C9.12778 49.958 9.11948 48.3014 9.12225 46.6448C9.12225 46.0336 9.39881 45.5828 9.96853 45.3727C10.4774 45.1846 10.9641 45.2897 11.3596 45.6935C11.65 45.9894 11.7053 46.3627 11.7026 46.7582C11.697 48.3733 11.686 49.9912 11.7053 51.6063C11.7192 52.6656 12.6042 53.3127 13.4891 52.9366C14.1335 52.66 14.3078 52.1069 14.3078 51.4515C14.2995 48.7246 14.305 45.9949 14.3078 43.268C14.3078 43.0468 14.3022 42.8228 14.3299 42.6015C14.4184 41.9461 14.9715 41.498 15.6463 41.5257C16.3045 41.5506 16.8245 42.0346 16.8743 42.7121C16.9074 43.174 16.8853 43.6414 16.8853 44.106C16.8853 46.5923 16.8853 49.0758 16.8853 51.5621C16.8853 53.1772 16.2243 54.4217 14.7862 55.1767C13.3675 55.9207 11.9791 55.7713 10.6904 54.831C10.4608 54.6623 10.3419 54.6955 10.1289 54.8449C8.85398 55.7631 7.47948 55.9124 6.08008 55.1989C4.63643 54.4604 3.94779 53.2104 3.94226 51.6008C3.9312 47.964 3.93396 44.3273 3.94502 40.6905C3.94502 40.3005 3.9146 40.1263 3.43062 40.0599C1.54724 39.8027 0.134012 38.3812 0.100824 36.4729C0.0316842 32.5955 -0.117659 28.7098 0.169965 24.8408C0.427167 21.3727 3.68782 18.3194 7.15866 18.1701C9.09459 18.0871 11.0361 18.1286 12.9747 18.1397C13.7491 18.1424 14.305 18.7149 14.3022 19.4229C14.2967 20.1364 13.7381 20.6979 12.9664 20.7062C11.3292 20.7228 9.69473 20.7062 8.05749 20.7117C4.89086 20.72 2.68667 22.9048 2.67284 26.0742C2.65902 29.3874 2.67284 32.7006 2.66455 36.0166C2.66455 36.6084 2.81942 37.0952 3.37254 37.3773C3.71271 37.5515 3.95609 37.6068 3.94779 37.0454C3.92013 35.1261 3.93396 33.2067 3.93949 31.2874C3.94226 30.4273 4.35987 29.8825 5.0485 29.794C5.90584 29.6861 6.52257 30.2531 6.54193 31.2017C6.56129 32.1503 6.54746 33.1016 6.54746 34.0502C6.54746 36.5144 6.54746 38.9813 6.54746 41.4455V41.4427Z" fill="#040F61"/>
<path id="Vector_4" d="M34.9698 6.48814C34.9698 10.0668 32.0714 12.9569 28.4983 12.9458C24.9583 12.9348 22.082 10.0502 22.0737 6.50197C22.0655 2.92603 24.9555 0.00831448 28.5149 1.7651e-05C32.0687 -0.00827918 34.9726 2.90944 34.9698 6.48814ZM28.501 2.61905C26.3466 2.62735 24.6292 4.36139 24.643 6.5158C24.6568 8.61213 26.413 10.3628 28.5121 10.3711C30.6305 10.3794 32.4033 8.60107 32.4005 6.47431C32.3978 4.3282 30.6637 2.61075 28.501 2.61905Z" fill="#EB4648"/>
<path id="Vector_5" d="M15.5745 10.3876C15.5579 13.25 13.2569 15.5317 10.3973 15.5206C7.52105 15.5095 5.21453 13.1726 5.24219 10.2964C5.26708 7.46714 7.61232 5.16892 10.4581 5.18551C13.3012 5.20211 15.5911 7.53075 15.5745 10.3876ZM12.9997 10.3766C13.008 8.9661 11.8631 7.79349 10.4498 7.76583C9.03384 7.73817 7.81421 8.94951 7.8225 10.3683C7.8308 11.776 9.00342 12.9403 10.4111 12.9431C11.8243 12.9431 12.9914 11.7898 12.9997 10.3766Z" fill="#040F61"/>
<path id="Vector_6" d="M46.6324 15.5206C43.7755 15.5234 41.4773 13.2335 41.469 10.3738C41.4607 7.51695 43.7534 5.19661 46.5965 5.18278C49.4672 5.17172 51.8069 7.50313 51.8013 10.3655C51.7958 13.2113 49.4865 15.5151 46.6324 15.5179V15.5206ZM46.6324 12.9431C48.0373 12.9403 49.2127 11.7705 49.2183 10.3683C49.2266 8.97167 48.0567 7.78522 46.6518 7.76586C45.233 7.7465 44.0327 8.94677 44.0438 10.3794C44.0521 11.7926 45.2192 12.9458 46.6324 12.9431Z" fill="#040F61"/>
</g>
</svg>
